<mxfile
  host="Electron" 
  agent="Mozilla/5.0 (Macintosh; Intel Mac OS X 10_15_7) AppleWebKit/537.36 (KHTML, like Gecko) draw.io/25.0.2 Chrome/128.0.6613.186 Electron/32.2.5 Safari/537.36" 
  version="25.0.2"
  >
  <diagram
    name="-"
    >
    <mxGraphModel
      grid="1" 
      gridSize="10" 
      guides="1" 
      tooltips="1" 
      connect="1" 
      arrows="1" 
      fold="1" 
      page="1" 
      pageScale="1" 
      pageWidth="1" 
      pageHeight="1" 
      math="0" 
      shadow="0"
      >
      <root>
        <mxCell
          id="page"
          />
        <mxCell
          id="root" 
          parent="page"
          />
        <mxCell
          style="verticalAlign=top;aspect=fixed;align=center;spacingLeft=5;spacingRight=5;spacingBottom=5;strokeColor=none;" 
          id="shape_" 
          parent="root" 
          value=" " 
          vertex="1"
          >
          <mxGeometry
            as="geometry" 
            width="60" 
            height="52" 
            x="0" 
            y="0"
            />
          </mxCell>
        <mxCell
          style="editableCssRules=.*;html=1;shape=image;verticalLabelPosition=bottom;labelBackgroundColor=#ffffff;verticalAlign=top;aspect=fixed;imageAspect=0;image=data:image/svg+xml,PHN2ZyB4bWxucz0iaHR0cDovL3d3dy53My5vcmcvMjAwMC9zdmciIHhtbG5zOnY9Imh0dHBzOi8vdmVjdGEuaW8vbmFubyIgd2lkdGg9IjM4MC41MTE5Nzg1NDYzNTQ0NCIgaGVpZ2h0PSIyNzQuOTI5OTg3NzczNzYyNTUiIHZpZXdCb3g9IjAgMCAxMDAuNjc2OTk0MzIzNzMwNDcgNzIuNzQxOTk2NzY1MTM2NzIiPiYjeGE7PHN0eWxlIHR5cGU9InRleHQvY3NzIj4mI3hhOwkuc3Qwe2ZpbGw6IzQyODVmNDt9JiN4YTs8L3N0eWxlPiYjeGE7CTxwYXRoIGNsYXNzPSJzdDAiIGQ9Ik0zNy41NyA0NC43MjRoMjUuNDc3djUuNDY5SDM3LjU3em0wLTEwLjE0NmgyNS40Nzd2NS40NjlIMzcuNTd6bTAtMTAuMTQ2aDI1LjQ3N3Y1LjQ2OUgzNy41N3ptNTMuNTIgMi4yNzhsOS41ODcgMTMuMTQzLTIzLjc4MiAzMi44ODlIMjkuMDdsLTQuNzQxLTYuNTY4IDQuODExLTYuNTYxaDM4LjEwMXpNOS41ODcgNDYuMDMyTDAgMzIuODg5IDIzLjc4MiAwaDQ3LjgyNWw0Ljc0MSA2LjU2OC00LjgxMSA2LjU2MUgzMy40Mzd6Ii8+JiN4YTs8L3N2Zz4;strokeColor=none;" 
          id="automl_natural_language_" 
          parent="shape_" 
          value=" " 
          vertex="1"
          >
          <mxGeometry
            width="40" 
            height="32" 
            as="geometry" 
            x="10" 
            y="10"
            />
          </mxCell>
        </root>
      </mxGraphModel>
    </diagram>
  </mxfile>